/* XPM */
static char *acmon_32x32[]={
"32 32 2 1",
". c #00ff00",
"# c #ff0000",
"................................",
"................................",
"................................",
"................................",
"................................",
"..............##................",
".............###................",
".............####...............",
"............#####...............",
"............######..............",
"...........#######..............",
"...........########.............",
"..........####.####.............",
"..........###...####............",
".........###.....###............",
".........###......###...........",
"........#############...........",
"........##############..........",
".......###..........##..........",
".......###..........###.........",
"......###............##.........",
".....###.............###........",
".....###..............##........",
"....###...............###.......",
"....###................##.......",
"..#######............#######....",
"................................",
"................................",
"................................",
"................................",
"................................",
"................................"};
