/* XPM */
static char *titanr_16x16[]={
"16 16 3 1",
"# c #000000",
". c #004000",
"a c #ff0000",
"..######.######.",
"#.#aaa.aaaa###.#",
"##.aaaaaaaaa#.##",
"###aaaa..aaa.###",
"##.aaa##.#aaa.##",
"#.#aaaa..aaaa#.#",
"#.#aaaaaaaaa##.#",
"#.#aaaaaaaaa....",
"...aaaaaaa.#.#.#",
"#.#aaa..aaa#.#.#",
"#.#aaa#..aaa##.#",
"##.aaa#..aaa#.##",
"###aaa...aaa.###",
"##.aaa#.#aaa#.##",
"#.###......###.#",
".######.#######."};
