/* XPM */
static char * n3_xpm[] = {
"14 20 59 1",
" 	c None",
".	c #5B6592",
"+	c #56618E",
"@	c #515C88",
"#	c #646D95",
"$	c #FFFFFF",
"%	c #C5C8D7",
"&	c #9EA4BC",
"*	c #8B92AF",
"=	c #777FA2",
"-	c #4D5782",
";	c #AFB3C7",
">	c #C3C7D5",
",	c #49537E",
"'	c #C2C5D4",
")	c #D6D8E2",
"!	c #EAEBF0",
"~	c #444E78",
"{	c #6D7495",
"]	c #C0C4D2",
"^	c #8289A5",
"/	c #404A74",
"(	c #949AB1",
"_	c #3C456E",
":	c #666D8D",
"<	c #E8E9EE",
"[	c #374068",
"}	c #626989",
"|	c #E8E9ED",
"1	c #8F94AA",
"2	c #323A63",
"3	c #5F6585",
"4	c #2E365E",
"5	c #D0D2DB",
"6	c #B9BCC9",
"7	c #283058",
"8	c #9EA2B4",
"9	c #878BA2",
"0	c #6F758F",
"a	c #242C53",
"b	c #B6B8C5",
"c	c #CECFD8",
"d	c #21284E",
"e	c #E5E6EA",
"f	c #9B9EAF",
"g	c #1C244B",
"h	c #343C5E",
"i	c #80859A",
"j	c #CCCED6",
"k	c #192146",
"l	c #656B83",
"m	c #CBCDD5",
"n	c #162044",
"o	c #49506D",
"p	c #969BAB",
"q	c #636A82",
"r	c #161F43",
"s	c #101631",
"t	c #04050B",
"..............",
"++++++++++++++",
"@@@#$$%&**=@@@",
"---;$$$$$$>---",
",,,'$$)$!$!,,,",
"~~~{]^~^{]]~~~",
"/////////$(///",
"________:<____",
"[[[[[[[}|1[[[[",
"2222223$$32222",
"4444445$$64444",
"77777789$$0777",
"aaaaaaaab$caaa",
"dddddddddefddd",
"ggggegghijhggg",
"kkklmm$$$lkkkk",
"nnnoppqqonnnnn",
"rrrrrrrrrrrrrr",
"ssssssssssssss",
"tttttttttttttt"};
