/* XPM */
static char * eru_xpm[] = {
"16 16 18 1",
" 	c None",
".	c #D9D9D9",
"+	c #000000",
"@	c #FFFFFF",
"#	c #D6D6D6",
"$	c #D4D4D4",
"%	c #D1D1D1",
"&	c #0000FF",
"*	c #CFCFCF",
"=	c #D0D0D0",
"-	c #CDCDCD",
";	c #CACACA",
">	c #FF0000",
",	c #C7C7C7",
"'	c #C4C4C4",
")	c #C1C1C1",
"!	c #BEBEBE",
"~	c #BBBBBB",
"................",
".++++++++++++++.",
".+@@@@@@@@@@@@+.",
".+@@@@@@@@@@@@+.",
"#+@@@@@@@@@@@@+#",
"$+@@@@@@@@@@@@+$",
"%+&&&&&&&&&&&&+%",
"*+&&&&&&&&&&&&+*",
"=+&&&&&&&&&&&&+=",
"-+&&&&&&&&&&&&+-",
";+>>>>>>>>>>>>+;",
",+>>>>>>>>>>>>+,",
"'+>>>>>>>>>>>>+'",
")+>>>>>>>>>>>>+)",
"!++++++++++++++!",
"~~~~~~~~~~~~~~~~"};
