/* XPM */
static char * a_xpm[] = {
"9 20 48 1",
" 	c None",
".	c #C9C9C9",
"+	c #C7C7C7",
"@	c #C4C4C4",
"#	c #B7B8BD",
"$	c #9DA1AF",
"%	c #C2C2C2",
"&	c #737A96",
"*	c #4C5681",
"=	c #80869E",
"-	c #C1C1C1",
";	c #48527D",
">	c #555E84",
",	c #C0C0C0",
"'	c #A4A6AF",
")	c #424C77",
"!	c #6C728F",
"~	c #9699A7",
"{	c #BEBEBE",
"]	c #787D94",
"^	c #404973",
"/	c #B0B1B5",
"(	c #6A708C",
"_	c #BCBCBC",
":	c #485175",
"<	c #3A446D",
"[	c #575E7E",
"}	c #656C87",
"|	c #ABACB0",
"1	c #363E67",
"2	c #8E909E",
"3	c #7C8092",
"4	c #313962",
"5	c #5E637F",
"6	c #4C5270",
"7	c #2D355C",
"8	c #B8B8B8",
"9	c #858895",
"0	c #B5B5B5",
"a	c #9597A0",
"b	c #B4B4B4",
"c	c #B2B2B2",
"d	c #B0B0B0",
"e	c #AEAEAE",
"f	c #ADADAD",
"g	c #ABABAB",
"h	c #A9A9A9",
"i	c #A7A7A7",
".........",
"+++++++++",
"@@#$$$#@@",
"%%&***=%%",
"--;;;;>--",
",'))!))~,",
"{]^^/^^({",
"_:<[_}<<_",
"|11111112",
"344444445",
"677888677",
"999000a99",
"bbbbbbbbb",
"ccccccccc",
"ddddddddd",
"eeeeeeeee",
"fffffffff",
"ggggggggg",
"hhhhhhhhh",
"iiiiiiiii"};
