/* XPM */
static char * colon_xpm[] = {
"9 20 37 1",
" 	c None",
".	c #5B6592",
"+	c #56618E",
"@	c #515C88",
"#	c #4D5782",
"$	c #49537E",
"%	c #444E78",
"&	c #404A74",
"*	c #545D83",
"=	c #BFC2D0",
"-	c #A9AEC0",
";	c #3C456E",
">	c #D3D5DE",
",	c #FFFFFF",
"'	c #9297AE",
")	c #374068",
"!	c #797F9A",
"~	c #A5A9BB",
"{	c #323A63",
"]	c #484F74",
"^	c #5F6585",
"/	c #2E365E",
"(	c #283058",
"_	c #E6E7EC",
":	c #878BA2",
"<	c #242C53",
"[	c #85899F",
"}	c #21284E",
"|	c #9B9EAF",
"1	c #B5B7C4",
"2	c #6B6F89",
"3	c #1C244B",
"4	c #192146",
"5	c #162044",
"6	c #161F43",
"7	c #101631",
"8	c #04050B",
".........",
"+++++++++",
"@@@@@@@@@",
"#########",
"$$$$$$$$$",
"%%%%%%%%%",
"&&&*=-&&&",
";;;>,,';;",
")))!,,~))",
"{{{{]^{{{",
"/////////",
"(((_,:(((",
"<<[,,,<<<",
"}}}|12}}}",
"333333333",
"444444444",
"555555555",
"666666666",
"777777777",
"888888888"};
