/* XPM */
static char * n9_xpm[] = {
"14 20 65 1",
" 	c None",
".	c #5B6592",
"+	c #56618E",
"@	c #515C88",
"#	c #B1B6C9",
"$	c #EBECF1",
"%	c #4D5782",
"&	c #888FAB",
"*	c #FFFFFF",
"=	c #D7D9E3",
"-	c #49537E",
";	c #5C658C",
">	c #EAEBF0",
",	c #C2C5D4",
"'	c #858CA9",
")	c #D6D8E2",
"!	c #444E78",
"~	c #ABAFC2",
"{	c #969CB3",
"]	c #E9EAEF",
"^	c #404A74",
"/	c #BFC2D0",
"(	c #949AB1",
"_	c #545D83",
":	c #3C456E",
"<	c #666D8D",
"[	c #E8E9EE",
"}	c #9297AE",
"|	c #A7ABBE",
"1	c #BEC1CE",
"2	c #374068",
"3	c #D2D4DD",
"4	c #323A63",
"5	c #767B97",
"6	c #BABDCB",
"7	c #8C91A8",
"8	c #D1D2DC",
"9	c #2E365E",
"0	c #737993",
"a	c #A1A5B7",
"b	c #283058",
"c	c #6F758F",
"d	c #242C53",
"e	c #6D728C",
"f	c #3C4365",
"g	c #21284E",
"h	c #9B9EAF",
"i	c #E5E6EA",
"j	c #1C244B",
"k	c #676D87",
"l	c #B3B6C3",
"m	c #192146",
"n	c #4B516E",
"o	c #989BAC",
"p	c #CBCDD5",
"q	c #7E8397",
"r	c #162044",
"s	c #7D8296",
"t	c #2F3858",
"u	c #161F43",
"v	c #49506C",
"w	c #636981",
"x	c #969AAA",
"y	c #101631",
"z	c #04050B",
"..............",
"++++++++++++++",
"@@@@@#$##@@@@@",
"%%%%&****=%%%%",
"---;>,--')'---",
"!!!~*!!!!{]!!!",
"^^^/*(^^_]*^^^",
":::<*[}|1**:::",
"22223******222",
"444456758*6444",
"999999990*a999",
"bbbbbbbbb*cbbb",
"dddddddde*fddd",
"gggggggghigggg",
"jjjjjjjk*ljjjj",
"mmmnopo**qmmmm",
"rrrs*****trrrr",
"uuuuvwsxvuuuuu",
"yyyyyyyyyyyyyy",
"zzzzzzzzzzzzzz"};
