/* XPM */
static char *acmon_16x16[]={
"16 16 2 1",
". c #00ff00",
"# c #ff0000",
"................",
"................",
"................",
".......##.......",
"......####......",
"......####......",
".....##..##.....",
".....##..##.....",
"....##....##....",
"....##.##.##....",
"...##..##..##...",
"...##......##...",
"...##......##...",
"..####....####..",
"................",
"................"};
