/* XPM */
static char * slash_xpm[] = {
"9 20 54 1",
" 	c None",
".	c #C9C9C9",
"+	c #C7C7C7",
"@	c #C4C4C4",
"#	c #C2C2C2",
"$	c #8D92A5",
"%	c #737A96",
"&	c #C1C1C1",
"*	c #48527D",
"=	c #707793",
"-	c #C0C0C0",
";	c #A4A6AF",
">	c #424C77",
",	c #888C9F",
"'	c #BEBEBE",
")	c #868A9C",
"!	c #404973",
"~	c #A2A4AD",
"{	c #BCBCBC",
"]	c #656C87",
"^	c #3A446D",
"/	c #BABABA",
"(	c #363E67",
"_	c #535979",
":	c #B9B9B9",
"<	c #9B9CA5",
"[	c #313962",
"}	c #6D7288",
"|	c #B8B8B8",
"1	c #7A7D8F",
"2	c #2D355C",
"3	c #898C99",
"4	c #B5B5B5",
"5	c #565B75",
"6	c #272F56",
"7	c #B4B4B4",
"8	c #232B52",
"9	c #434967",
"0	c #B2B2B2",
"a	c #A1A2A6",
"b	c #20274D",
"c	c #61657A",
"d	c #B0B0B0",
"e	c #7E818E",
"f	c #1B234A",
"g	c #AEAEAE",
"h	c #4A4F68",
"i	c #182045",
"j	c #ADADAD",
"k	c #272F4F",
"l	c #373E5A",
"m	c #ABABAB",
"n	c #A9A9A9",
"o	c #A7A7A7",
".........",
"+++++++++",
"@@@@@@@@@",
"#####$%##",
"&&&&&*=&&",
"----;>,--",
"'''')!~''",
"{{{{]^{{{",
"////(_///",
":::<[}:::",
"|||123|||",
"444564444",
"777897777",
"00abc0000",
"ddefedddd",
"gghiggggg",
"jjkljjjjj",
"mmmmmmmmm",
"nnnnnnnnn",
"ooooooooo"};
