/* XPM */
static char * closeILeft_xpm[] = {
"17 40 53 1",
" 	c None",
".	c #A6A6A6",
"+	c #959595",
"@	c #9C9C9C",
"#	c #505050",
"$	c #979797",
"%	c #FFFFFF",
"&	c #D5D5D5",
"*	c #949494",
"=	c #E4E5E4",
"-	c #8F8F8F",
";	c #E2E3E1",
">	c #E2E3E2",
",	c #E2E2E2",
"'	c #E1E2E2",
")	c #8B8B8B",
"!	c #DEDFDE",
"~	c #DFDFDF",
"{	c #868686",
"]	c #DADADA",
"^	c #DADBDA",
"/	c #818181",
"(	c #D5D6D5",
"_	c #D6D7D5",
":	c #D5D7D5",
"<	c #7D7D7D",
"[	c #D1D2D1",
"}	c #D1D1D0",
"|	c #787878",
"1	c #CECECD",
"2	c #CDCECD",
"3	c #737373",
"4	c #C9CAC9",
"5	c #C8CAC9",
"6	c #707070",
"7	c #C5C5C4",
"8	c #C5C6C4",
"9	c #C4C5C4",
"0	c #C4C6C4",
"a	c #C4C6C5",
"b	c #C5C6C5",
"c	c #6C6C6C",
"d	c #C0C1C0",
"e	c #C0C1C1",
"f	c #C1C1C0",
"g	c #C1C1C1",
"h	c #696969",
"i	c #656565",
"j	c #646464",
"k	c #2B2B2B",
"l	c #676767",
"m	c #9B9B9B",
"n	c #343434",
".................",
"+++++++++++++++++",
"@##############@@",
"$#%%%%%%%%%%%&#$$",
"*#%==========+#**",
"-#%;>#>,>>#'>+#--",
")#%!###~~###!+#))",
"{#%]^######^^+#{{",
"/#%(_(####((:+#//",
"<#%[[}####[[[+#<<",
"|#%12######22+#||",
"3#%4###44###5+#33",
"6#%78#9907#ab+#66",
"c#%dedfgdefde+#cc",
"h#&+++++++++++#hh",
"i##############ii",
"jjjjjjjjjjjjjjjjj",
"jjjjjjjjjjjjjjjjj",
"#################",
"kkkkkkkkkkkkkkkkk",
".................",
"+++++++++++++++++",
"$llllllllllllll@@",
"*lmmmmmmmmmmmml$$",
"-lmmmmmmmmmmmml**",
")lmmmnmmmmnmmml--",
"{lmmnnnmmnnnmml))",
"/lmmmnnnnnnmmml{{",
"<lmmmmnnnnmmmml//",
"|lmmmmnnnnmmmml<<",
"3lmmmnnnnnnmmml||",
"6lmmnnnmmnnnmml33",
"clmmmnmmmmnmmml66",
"hlmmmmmmmmmmmmlcc",
"ilmmmmmmmmmmmmlhh",
"jllllllllllllllii",
"jjjjjjjjjjjjjjjjj",
"jjjjjjjjjjjjjjjjj",
"#################",
"kkkkkkkkkkkkkkkkk"};
