/* XPM */
static char * m_xpm[] = {
"9 20 48 1",
" 	c None",
".	c #C9C9C9",
"+	c #C7C7C7",
"@	c #9DA0AF",
"#	c #AAACB6",
"$	c #C4C4C4",
"%	c #B7B8BD",
"&	c #4B557F",
"*	c #727996",
"=	c #C2C2C2",
"-	c #9A9DAC",
";	c #47517C",
">	c #C1C1C1",
",	c #6F7693",
"'	c #414B76",
")	c #5D6586",
"!	c #B2B3B7",
"~	c #4F587E",
"{	c #3F4872",
"]	c #696F8B",
"^	c #9396A4",
"/	c #39436C",
"(	c #9093A1",
"_	c #475075",
":	c #353D66",
"<	c #8D909E",
"[	c #525878",
"}	c #ABACB0",
"|	c #303861",
"1	c #8B8E9B",
"2	c #6D7188",
"3	c #3F466B",
"4	c #B9B9B9",
"5	c #2C345B",
"6	c #898C99",
"7	c #5A607A",
"8	c #B8B8B8",
"9	c #858895",
"0	c #A5A6AA",
"a	c #B5B5B5",
"b	c #B4B4B4",
"c	c #B2B2B2",
"d	c #B0B0B0",
"e	c #AEAEAE",
"f	c #ADADAD",
"g	c #ABABAB",
"h	c #A9A9A9",
"i	c #A7A7A7",
".........",
"+++++++++",
"@@@#$%@@@",
"&&&*=-&&&",
";;;;>,;;;",
"'')'!)~''",
"{{]{^{]{{",
"//(/_/(//",
"::<[::}::",
"||12|34||",
"556657855",
"990a90a99",
"bbbbbbbbb",
"ccccccccc",
"ddddddddd",
"eeeeeeeee",
"fffffffff",
"ggggggggg",
"hhhhhhhhh",
"iiiiiiiii"};
