/* XPM */
static char * n2_xpm[] = {
"14 20 65 1",
" 	c None",
".	c #5B6592",
"+	c #56618E",
"@	c #515C88",
"#	c #9EA4BC",
"$	c #B1B6C9",
"%	c #4D5782",
"&	c #AFB3C7",
"*	c #FFFFFF",
"=	c #C3C7D5",
"-	c #49537E",
";	c #5C658C",
">	c #EAEBF0",
",	c #444E78",
"'	c #D5D7E0",
")	c #969CB3",
"!	c #404A74",
"~	c #E9EAEF",
"{	c #BFC2D0",
"]	c #3C456E",
"^	c #7D839E",
"/	c #666D8D",
"(	c #D3D5DE",
"_	c #BEC1CE",
":	c #374068",
"<	c #A5A9BB",
"[	c #797F9A",
"}	c #BCBFCC",
"|	c #323A63",
"1	c #E7E8ED",
"2	c #D1D2DC",
"3	c #2E365E",
"4	c #8A8FA5",
"5	c #283058",
"6	c #CED0D9",
"7	c #E6E7EC",
"8	c #242C53",
"9	c #545A78",
"0	c #85899F",
"a	c #21284E",
"b	c #515774",
"c	c #E5E6EA",
"d	c #9B9EAF",
"e	c #1C244B",
"f	c #343C5E",
"g	c #676D87",
"h	c #B3B6C3",
"i	c #CCCED6",
"j	c #4D5472",
"k	c #999DAE",
"l	c #192146",
"m	c #989BAC",
"n	c #CBCDD5",
"o	c #B2B5C1",
"p	c #E4E5E9",
"q	c #162044",
"r	c #B1B4C0",
"s	c #2F3858",
"t	c #636A82",
"u	c #161F43",
"v	c #2F3757",
"w	c #636981",
"x	c #49506C",
"y	c #101631",
"z	c #04050B",
"..............",
"++++++++++++++",
"@@@@@@#$@@@@@@",
"%%%%&***=%%%%%",
"---;*****>----",
",,,'******),,,",
"!!!**~~***{!!!",
"]]^**/](**_]]]",
":::<[::<**}:::",
"|||||||1**2|||",
"3333334***4333",
"5555556**75555",
"888889***08888",
"aaaabc**daaaaa",
"efgh**ijegh*ke",
"lm****no****pl",
"qqrrstrrr***rq",
"uuuuuuuuuvwxuu",
"yyyyyyyyyyyyyy",
"zzzzzzzzzzzzzz"};
