/* XPM */
static char * n6_xpm[] = {
"14 20 69 1",
" 	c None",
".	c #5B6592",
"+	c #56618E",
"@	c #515C88",
"#	c #777FA2",
"$	c #9EA4BC",
"%	c #C5C8D7",
"&	c #8B92AF",
"*	c #4D5782",
"=	c #D7D9E3",
"-	c #FFFFFF",
";	c #EAEBF0",
">	c #49537E",
",	c #70789A",
"'	c #999FB7",
")	c #ADB2C5",
"!	c #5C658C",
"~	c #444E78",
"{	c #C0C4D2",
"]	c #8289A5",
"^	c #404A74",
"/	c #BFC2D0",
"(	c #D4D6DF",
"_	c #3C456E",
":	c #E8E9EE",
"<	c #A7ABBE",
"[	c #374068",
"}	c #797F9A",
"|	c #323A63",
"1	c #767B97",
"2	c #BABDCB",
"3	c #2E365E",
"4	c #8A8FA5",
"5	c #B9BCC9",
"6	c #A1A5B7",
"7	c #D0D2DB",
"8	c #283058",
"9	c #B7BAC7",
"0	c #3F466A",
"a	c #242C53",
"b	c #B6B8C5",
"c	c #E6E7EB",
"d	c #6D728C",
"e	c #85899F",
"f	c #21284E",
"g	c #CDCED7",
"h	c #515774",
"i	c #393F61",
"j	c #E5E6EA",
"k	c #1C244B",
"l	c #999DAE",
"m	c #B3B6C3",
"n	c #343C5E",
"o	c #CCCED6",
"p	c #192146",
"q	c #CBCDD5",
"r	c #E4E5E9",
"s	c #656B83",
"t	c #B2B5C1",
"u	c #32395A",
"v	c #162044",
"w	c #636A82",
"x	c #7D8296",
"y	c #161F43",
"z	c #636981",
"A	c #969AAA",
"B	c #B1B4C0",
"C	c #101631",
"D	c #04050B",
"..............",
"++++++++++++++",
"@@@@@#$%&&@@@@",
"*****=----;***",
">>>>,--')'!>>>",
"~~~~{-]~~~~~~~",
"^^^^/(^^^^^^^^",
"____:<________",
"[[[[-}[[[[[[[[",
"|||1-2||||||||",
"3334--56753333",
"8889------0888",
"aaab-cdeb-baaa",
"fffg-hffij-fff",
"kkklmnkkkookkk",
"ppppqrsst-uppp",
"vvvvw----xvvvv",
"yyyyyzABAyyyyy",
"CCCCCCCCCCCCCC",
"DDDDDDDDDDDDDD"};
