/* XPM */
static char * n7_xpm[] = {
"14 20 57 1",
" 	c None",
".	c #5B6592",
"+	c #56618E",
"@	c #515C88",
"#	c #8B92AF",
"$	c #9EA4BC",
"%	c #C5C8D7",
"&	c #646D95",
"*	c #4D5782",
"=	c #747B9D",
"-	c #C3C7D5",
";	c #EAEBF0",
">	c #FFFFFF",
",	c #49537E",
"'	c #ADB2C5",
")	c #D6D8E2",
"!	c #C2C5D4",
"~	c #444E78",
"{	c #586186",
"]	c #969CB3",
"^	c #6D7495",
"/	c #404A74",
"(	c #D4D6DF",
"_	c #BFC2D0",
":	c #3C456E",
"<	c #7D839E",
"[	c #666D8D",
"}	c #374068",
"|	c #4C5478",
"1	c #A5A9BB",
"2	c #323A63",
"3	c #A3A6B9",
"4	c #484F74",
"5	c #2E365E",
"6	c #444C6F",
"7	c #E7E8EC",
"8	c #8A8FA5",
"9	c #283058",
"0	c #3F466A",
"a	c #6F758F",
"b	c #242C53",
"c	c #6D728C",
"d	c #21284E",
"e	c #515774",
"f	c #6B6F89",
"g	c #1C244B",
"h	c #676D87",
"i	c #192146",
"j	c #656B83",
"k	c #162044",
"l	c #49506D",
"m	c #636A82",
"n	c #161F43",
"o	c #2F3757",
"p	c #636981",
"q	c #101631",
"r	c #04050B",
"..............",
"++++++++++++++",
"@@@@@@#@$%&@@@",
"***=-;;>>>-***",
",,,,')>>>>!,,,",
"~~~~~~{]>>^~~~",
"////////(_////",
":::::::<>[::::",
"}}}}}}|>1}}}}}",
"2222223>422222",
"55555678555555",
"999990>>a99999",
"bbbbbc>>cbbbbb",
"ddddde>>fddddd",
"gggggh>>hggggg",
"iiiiij>>jiiiii",
"kkkkkl>>mkkkkk",
"nnnnnnopnnnnnn",
"qqqqqqqqqqqqqq",
"rrrrrrrrrrrrrr"};
