/* XPM */
static char *titan3_32x132[]={
"32 32 2 1",
"# c #000000",
". c #00ff00",
".##############..##############.",
"#.##########........##########.#",
"##.#######..###..###...######.##",
"###.####..#####..######..###.###",
"####.##.#######..########.#.####",
"#####..########..#########.#####",
"####.#.########..########..#####",
"####.##.#######..#######.##.####",
"###.####.#####.....####.####.###",
"##.######.#...#..##..#.#####.###",
"##.#######.####..###..#######.##",
"##.######...###..###.#.######.##",
"#.#######.##.##..##.##.#######.#",
"#.######.####.#..#.###.#######.#",
"#.######.#####....#####.######.#",
"...............##...............",
"...............##...............",
"#.######.#####....#####.######.#",
"#.#######.###.#..#.####.######.#",
"#.#######.##.##..##.##.#########",
"##.######.#.###..###...######.##",
"##.#######..###..####.##########",
"###.#####.#..##..#...#.######.##",
"###.####.####.....#####.####.###",
"####.##.#######..#######.#######",
"#####..########..########.#.####",
"#####..########..########..#####",
"####.#..#######..#######.##.####",
"###.####.######..#####.#####.###",
"##.######...###..####.#######.##",
"#.##########........##########.#",
".##############..##############."};
