/* XPM */
static char * closeALeft_xpm[] = {
"17 40 109 2",
"  	c None",
". 	c #5B6592",
"+ 	c #7F7F7F",
"@ 	c #55608C",
"# 	c #000000",
"$ 	c #505B87",
"% 	c #FFFFFF",
"& 	c #CCCCCC",
"* 	c #4C5681",
"= 	c #DFE0DF",
"- 	c #48527D",
"; 	c #DCDDDB",
"> 	c #DCDDDC",
", 	c #DCDCDC",
"' 	c #DBDCDC",
") 	c #424C77",
"! 	c #D7D9D7",
"~ 	c #D8D8D8",
"{ 	c #D8D9D8",
"] 	c #404973",
"^ 	c #D3D3D3",
"/ 	c #D2D4D2",
"( 	c #D2D4D3",
"_ 	c #3A446D",
": 	c #CDCECD",
"< 	c #CECFCD",
"[ 	c #CDCFCD",
"} 	c #363E67",
"| 	c #C8C9C8",
"1 	c #C8C8C7",
"2 	c #313962",
"3 	c #C4C4C3",
"4 	c #C3C4C3",
"5 	c #2D355C",
"6 	c #BEBFBE",
"7 	c #BDBFBE",
"8 	c #272F56",
"9 	c #B9B9B8",
"0 	c #B9BAB8",
"a 	c #B8B9B8",
"b 	c #B8BAB8",
"c 	c #B8BAB9",
"d 	c #B9BAB9",
"e 	c #232B52",
"f 	c #B3B4B3",
"g 	c #B3B5B4",
"h 	c #B4B4B3",
"i 	c #B4B4B4",
"j 	c #B3B5B3",
"k 	c #B4B5B3",
"l 	c #20274D",
"m 	c #1B234A",
"n 	c #182045",
"o 	c #161F43",
"p 	c #0E132B",
"q 	c #333333",
"r 	c #404040",
"s 	c #484848",
"t 	c #4A4B4A",
"u 	c #4B4B4B",
"v 	c #3D3D3D",
"w 	c #585958",
"x 	c #6A6B6A",
"y 	c #6F706F",
"z 	c #444444",
"A 	c #686968",
"B 	c #7F807F",
"C 	c #878887",
"D 	c #878787",
"E 	c #454545",
"F 	c #6B6C6B",
"G 	c #8C8C8C",
"H 	c #696969",
"I 	c #818281",
"J 	c #898A89",
"K 	c #424242",
"L 	c #666766",
"M 	c #7E7F7D",
"N 	c #848584",
"O 	c #858685",
"P 	c #646564",
"Q 	c #7A7B7A",
"R 	c #818181",
"S 	c #828382",
"T 	c #3E3F3E",
"U 	c #636362",
"V 	c #787978",
"W 	c #3E3E3E",
"X 	c #5F5F5F",
"Y 	c #7C7C7C",
"Z 	c #3C3C3C",
"` 	c #5C5C5C",
" .	c #717271",
"..	c #787878",
"+.	c #3A3A3A",
"@.	c #5A5A5A",
"#.	c #6E6F6E",
"$.	c #747474",
"%.	c #757575",
"&.	c #757675",
"*.	c #363636",
"=.	c #555555",
"-.	c #686868",
";.	c #6C6D6D",
">.	c #6D6E6D",
",.	c #6D6F6E",
"'.	c #6D6E6E",
").	c #6E6E6D",
"!.	c #6E6E6E",
". . . . . . . . . . . . . . . . . ",
"+ + + + + + + + + + + + + + + + @ ",
"+ # # # # # # # # # # # # # # + $ ",
"+ # % % % % % % % % % % % & # + * ",
"+ # % = = = = = = = = = = + # + - ",
"+ # % ; > # > , > > # ' > + # + ) ",
"+ # % ! # # # ~ { # # # ! + # + ] ",
"+ # % ^ / # # # # # # ( ( + # + _ ",
"+ # % : < : # # # # : : [ + # + } ",
"+ # % | | 1 # # # # | | | + # + 2 ",
"+ # % 3 4 # # # # # # 4 4 + # + 5 ",
"+ # % 6 # # # 6 6 # # # 7 + # + 8 ",
"+ # % 9 0 # a a b 9 # c d + # + e ",
"+ # % f g f h i j g k f g + # + l ",
"+ # & + + + + + + + + + + + # + m ",
"+ # # # # # # # # # # # # # # + n ",
"+ + + + + + + + + + + + + + + + o ",
"o o o o o o o o o o o o o o o o o ",
"p p p p p p p p p p p p p p p p p ",
"# # # # # # # # # # # # # # # # # ",
". . . . . . . . . . . . . . . . . ",
"+ + + + + + + + + + + + + + + + @ ",
"+ # # # # # # # # # # # # # # + $ ",
"+ # q r s t u u u u u u u u # + * ",
"+ # v w x y y y y y y y y y # + - ",
"+ # z A B # C D C C # D D D # + ) ",
"+ # E F # # # G G # # # G G # + ] ",
"+ # z H I # # # # # # J J J # + _ ",
"+ # K L M N # # # # O O O O # + } ",
"+ # r P Q R # # # # S S S S # + 2 ",
"+ # T U V # # # # # # B B B # + 5 ",
"+ # W X # # # Y Y # # # Y Y # + 8 ",
"+ # Z `  .# ....V ..# V V V # + e ",
"+ # +.@.#.$.%.%.&.&.&.%.%.%.# + l ",
"+ # *.=.-.;.>.,.,.'.>.>.).!.# + m ",
"+ # # # # # # # # # # # # # # + n ",
"+ + + + + + + + + + + + + + + + o ",
"o o o o o o o o o o o o o o o o o ",
"p p p p p p p p p p p p p p p p p ",
"# # # # # # # # # # # # # # # # # "};
