/* XPM */
static char * n1_xpm[] = {
"14 20 48 1",
" 	c None",
".	c #5B6592",
"+	c #56618E",
"@	c #515C88",
"#	c #8B92AF",
"$	c #646D95",
"%	c #4D5782",
"&	c #60698F",
"*	c #FFFFFF",
"=	c #EAEBF0",
"-	c #49537E",
";	c #ADB2C5",
">	c #70789A",
",	c #444E78",
"'	c #D5D7E0",
")	c #8289A5",
"!	c #404A74",
"~	c #7F86A2",
"{	c #697192",
"]	c #3C456E",
"^	c #7D839E",
"/	c #A7ABBE",
"(	c #374068",
"_	c #797F9A",
":	c #323A63",
"<	c #767B97",
"[	c #2E365E",
"}	c #737993",
"|	c #283058",
"1	c #3F466A",
"2	c #E6E7EC",
"3	c #CED0D9",
"4	c #242C53",
"5	c #B6B8C5",
"6	c #21284E",
"7	c #6B6F89",
"8	c #E5E6EA",
"9	c #1C244B",
"0	c #676D87",
"a	c #999DAE",
"b	c #192146",
"c	c #656B83",
"d	c #32395A",
"e	c #162044",
"f	c #161F43",
"g	c #7D8296",
"h	c #101631",
"i	c #04050B",
"..............",
"++++++++++++++",
"@@@@@@##$@@@@@",
"%%%%%&**=%%%%%",
"-----;***>----",
",,,,,'***),,,,",
"!!!!!~***{!!!!",
"]]]]]^**/]]]]]",
"(((((_**((((((",
":::::<**::::::",
"[[[[[}**[[[[[[",
"|||||123||||||",
"444444*5444444",
"666667*8666666",
"999990*a999999",
"bbbbbc*dbbbbbb",
"eeeeee*eeeeeee",
"ffffffgfffffff",
"hhhhhhhhhhhhhh",
"iiiiiiiiiiiiii"};
