/* XPM */
static char * n8_xpm[] = {
"14 20 71 1",
" 	c None",
".	c #5B6592",
"+	c #56618E",
"@	c #515C88",
"#	c #B1B6C9",
"$	c #9EA4BC",
"%	c #4D5782",
"&	c #888FAB",
"*	c #FFFFFF",
"=	c #D7D9E3",
"-	c #49537E",
";	c #5C658C",
">	c #EAEBF0",
",	c #C2C5D4",
"'	c #858CA9",
")	c #D6D8E2",
"!	c #444E78",
"~	c #ABAFC2",
"{	c #969CB3",
"]	c #E9EAEF",
"^	c #404A74",
"/	c #BFC2D0",
"(	c #949AB1",
"_	c #545D83",
":	c #3C456E",
"<	c #666D8D",
"[	c #E8E9EE",
"}	c #9297AE",
"|	c #A7ABBE",
"1	c #BEC1CE",
"2	c #D3D5DE",
"3	c #374068",
"4	c #D2D4DD",
"5	c #797F9A",
"6	c #323A63",
"7	c #8C91A8",
"8	c #D1D2DC",
"9	c #2E365E",
"0	c #8A8FA5",
"a	c #D0D2DB",
"b	c #737993",
"c	c #283058",
"d	c #3F466A",
"e	c #E6E7EC",
"f	c #CED0D9",
"g	c #6F758F",
"h	c #242C53",
"i	c #6D728C",
"j	c #3C4365",
"k	c #E6E7EB",
"l	c #21284E",
"m	c #6B6F89",
"n	c #393F61",
"o	c #B5B7C4",
"p	c #1C244B",
"q	c #4D5472",
"r	c #E5E6EA",
"s	c #676D87",
"t	c #B3B6C3",
"u	c #192146",
"v	c #989BAC",
"w	c #656B83",
"x	c #162044",
"y	c #969BAB",
"z	c #2F3858",
"A	c #161F43",
"B	c #636981",
"C	c #B1B4C0",
"D	c #969AAA",
"E	c #101631",
"F	c #04050B",
"..............",
"++++++++++++++",
"@@@@@##$#@@@@@",
"%%%%&****=%%%%",
"---;>,--')'---",
"!!!~*!!!!{]!!!",
"^^^/*(^^_]*^^^",
":::<*[}|1*2:::",
"33334*****5333",
"66667*77*86666",
"99990a99b*9999",
"cccdedcccfgccc",
"hhhi*jhhhikhhh",
"lllm*llllnolll",
"pppqrqpps*tppp",
"uuuu***v**wuuu",
"xxxxy*****zxxx",
"AAAAABCCDAAAAA",
"EEEEEEEEEEEEEE",
"FFFFFFFFFFFFFF"};
