/* XPM */
static char * p_xpm[] = {
"9 20 46 1",
" 	c None",
".	c #C9C9C9",
"+	c #C7C7C7",
"@	c #C4C4C4",
"#	c #9FA2B1",
"$	c #B7B9BD",
"%	c #C2C2C2",
"&	c #505B87",
"*	c #9C9FAE",
"=	c #C1C1C1",
"-	c #4C5681",
";	c #596288",
">	c #737996",
",	c #C0C0C0",
"'	c #48527D",
")	c #707693",
"!	c #BEBEBE",
"~	c #424C77",
"{	c #5D6586",
"]	c #9498A6",
"^	c #50587F",
"/	c #BCBCBC",
"(	c #404973",
"_	c #777C93",
":	c #BABABA",
"<	c #3A446D",
"[	c #485175",
"}	c #646B86",
"|	c #818597",
"1	c #B9B9B9",
"2	c #363E67",
"3	c #616782",
"4	c #B8B8B8",
"5	c #313962",
"6	c #5E637E",
"7	c #B5B5B5",
"8	c #878A97",
"9	c #9798A1",
"0	c #B4B4B4",
"a	c #B2B2B2",
"b	c #B0B0B0",
"c	c #AEAEAE",
"d	c #ADADAD",
"e	c #ABABAB",
"f	c #A9A9A9",
"g	c #A7A7A7",
".........",
"+++++++++",
"@#####$@@",
"%&&&&&&*%",
"=--;>--;=",
",''),)'',",
"!~~{]^~^!",
"/((((((_/",
":<<[}}|::",
"122311111",
"455644444",
"788977777",
"000000000",
"aaaaaaaaa",
"bbbbbbbbb",
"ccccccccc",
"ddddddddd",
"eeeeeeeee",
"fffffffff",
"ggggggggg"};
