/* XPM */
static char *titan_16x16[]={
"16 16 2 1",
". c #000000",
"# c #00ff00",
"................",
".....######.....",
"....#......#....",
"...#........#...",
"..#..........#..",
".#....####....#.",
".#...##..##...#.",
".#...#.##.#...#.",
".#...#.##.#...#.",
".#...##..##...#.",
".#....####....#.",
"..#..........#..",
"...#........#...",
"....#......#....",
".....######.....",
"................"};
