/* XPM */
static char * n4_xpm[] = {
"14 20 59 1",
" 	c None",
".	c #5B6592",
"+	c #56618E",
"@	c #515C88",
"#	c #B1B6C9",
"$	c #C5C8D7",
"%	c #4D5782",
"&	c #888FAB",
"*	c #FFFFFF",
"=	c #EAEBF0",
"-	c #60698F",
";	c #747B9D",
">	c #49537E",
",	c #ADB2C5",
"'	c #5C658C",
")	c #858CA9",
"!	c #444E78",
"~	c #8289A5",
"{	c #E9EAEF",
"]	c #586186",
"^	c #404A74",
"/	c #A9AEC0",
"(	c #545D83",
"_	c #3C456E",
":	c #E8E9EE",
"<	c #D3D5DE",
"[	c #51597D",
"}	c #374068",
"|	c #8F94AA",
"1	c #D2D4DD",
"2	c #E8E9ED",
"3	c #323A63",
"4	c #E7E8ED",
"5	c #8C91A8",
"6	c #2E365E",
"7	c #5B6281",
"8	c #D0D2DB",
"9	c #737993",
"0	c #283058",
"a	c #6F758F",
"b	c #242C53",
"c	c #6D728C",
"d	c #3C4365",
"e	c #21284E",
"f	c #6B6F89",
"g	c #CDCED7",
"h	c #1C244B",
"i	c #4D5472",
"j	c #B3B6C3",
"k	c #192146",
"l	c #656B83",
"m	c #989BAC",
"n	c #162044",
"o	c #B1B4C0",
"p	c #49506D",
"q	c #161F43",
"r	c #49506C",
"s	c #101631",
"t	c #04050B",
"..............",
"++++++++++++++",
"@@@@@@##@$$@@@",
"%%%%%&*=-**;%%",
">>>>>**,'**)>>",
"!!!!~*{]!**~!!",
"^^^^/*(^^**(^^",
"____:<__[**[__",
"}}}|**12**1}}}",
"3334******5333",
"66678**8**9666",
"00000000a*a000",
"bbbbbbbbc*dbbb",
"eeeeeeeefgeeee",
"hhhhhhhhijhhhh",
"kkkkkkkklmkkkk",
"nnnnnnnnopnnnn",
"qqqqqqqqrqqqqq",
"ssssssssssssss",
"tttttttttttttt"};
