/* XPM */
static char * dot_xpm[] = {
"9 20 28 1",
" 	c None",
".	c #C9C9C9",
"+	c #C7C7C7",
"@	c #C4C4C4",
"#	c #C2C2C2",
"$	c #C1C1C1",
"%	c #C0C0C0",
"&	c #BEBEBE",
"*	c #BCBCBC",
"=	c #BABABA",
"-	c #B9B9B9",
";	c #B8B8B8",
">	c #B5B5B5",
",	c #B4B4B4",
"'	c #1A2249",
")	c #4D526C",
"!	c #B2B2B2",
"~	c #171F44",
"{	c #4A5068",
"]	c #B0B0B0",
"^	c #151E42",
"/	c #484E66",
"(	c #AEAEAE",
"_	c #6A6E7E",
":	c #ADADAD",
"<	c #ABABAB",
"[	c #A9A9A9",
"}	c #A7A7A7",
".........",
"+++++++++",
"@@@@@@@@@",
"#########",
"$$$$$$$$$",
"%%%%%%%%%",
"&&&&&&&&&",
"*********",
"=========",
"---------",
";;;;;;;;;",
">>>>>>>>>",
",,,'''),,",
"!!!~~~{!!",
"]]]^^^/]]",
"(((///_((",
":::::::::",
"<<<<<<<<<",
"[[[[[[[[[",
"}}}}}}}}}"};
