/* XPM */
static char * n0_xpm[] = {
"14 20 72 1",
" 	c None",
".	c #5B6592",
"+	c #56618E",
"@	c #7B83A6",
"#	c #515C88",
"$	c #646D95",
"%	c #FFFFFF",
"&	c #EBECF1",
"*	c #C5C8D7",
"=	c #4D5782",
"-	c #60698F",
";	c #EAEBF0",
">	c #747B9D",
",	c #49537E",
"'	c #5C658C",
")	c #444E78",
"!	c #969CB3",
"~	c #D5D7E0",
"{	c #E9EAEF",
"]	c #8289A5",
"^	c #404A74",
"/	c #D4D6DF",
"(	c #697192",
"_	c #A9AEC0",
":	c #545D83",
"<	c #3C456E",
"[	c #9297AE",
"}	c #666D8D",
"|	c #374068",
"1	c #797F9A",
"2	c #E8E9ED",
"3	c #BCBFCC",
"4	c #323A63",
"5	c #767B97",
"6	c #E7E8ED",
"7	c #484F74",
"8	c #BABDCB",
"9	c #2E365E",
"0	c #8A8FA5",
"a	c #E7E8EC",
"b	c #B9BCC9",
"c	c #444C6F",
"d	c #283058",
"e	c #6F758F",
"f	c #CED0D9",
"g	c #B7BAC7",
"h	c #242C53",
"i	c #545A78",
"j	c #CECFD8",
"k	c #85899F",
"l	c #3C4365",
"m	c #21284E",
"n	c #B5B7C4",
"o	c #CDCED7",
"p	c #515774",
"q	c #6B6F89",
"r	c #E5E6EA",
"s	c #1C244B",
"t	c #343C5E",
"u	c #676D87",
"v	c #192146",
"w	c #32395A",
"x	c #E4E5E9",
"y	c #CBCDD5",
"z	c #162044",
"A	c #2F3858",
"B	c #CACDD5",
"C	c #49506D",
"D	c #161F43",
"E	c #2F3757",
"F	c #101631",
"G	c #04050B",
"..............",
"+++++++@++++++",
"######$%&**###",
"=====-;%%%%>==",
",,,,';%%%%%',,",
"))))!%%~{%%]))",
"^^^^/%{^(%_:^^",
"<<<<%%[<<%%}<<",
"|||1%%1||2%3||",
"4445%67448%544",
"9990%a999b%c99",
"ddde%fddd%gddd",
"hhhijkhhh%lhhh",
"mmmmnopmqrmmmm",
"sssst%tsrussss",
"vvvvwx%yyvvvvv",
"zzzzzAB%Czzzzz",
"DDDDDDEEDDDDDD",
"FFFFFFFFFFFFFF",
"GGGGGGGGGGGGGG"};
