/* XPM */
static char * n5_xpm[] = {
"14 20 66 1",
" 	c None",
".	c #5B6592",
"+	c #56618E",
"@	c #515C88",
"#	c #777FA2",
"$	c #C5C8D7",
"%	c #8B92AF",
"&	c #646D95",
"*	c #4D5782",
"=	c #D7D9E3",
"-	c #FFFFFF",
";	c #EAEBF0",
">	c #C3C7D5",
",	c #888FAB",
"'	c #49537E",
")	c #ADB2C5",
"!	c #858CA9",
"~	c #C2C5D4",
"{	c #999FB7",
"]	c #444E78",
"^	c #8289A5",
"/	c #D5D7E0",
"(	c #404A74",
"_	c #A9AEC0",
":	c #D4D6DF",
"<	c #7F86A2",
"[	c #3C456E",
"}	c #D3D5DE",
"|	c #BEC1CE",
"1	c #A7ABBE",
"2	c #374068",
"3	c #797F9A",
"4	c #323A63",
"5	c #BABDCB",
"6	c #A3A6B9",
"7	c #2E365E",
"8	c #A1A5B7",
"9	c #737993",
"0	c #B9BCC9",
"a	c #283058",
"b	c #9EA2B4",
"c	c #6F758F",
"d	c #B7BAC7",
"e	c #242C53",
"f	c #CECFD8",
"g	c #545A78",
"h	c #21284E",
"i	c #393F61",
"j	c #515774",
"k	c #1C244B",
"l	c #4D5472",
"m	c #E5E6EA",
"n	c #999DAE",
"o	c #CCCED6",
"p	c #192146",
"q	c #989BAC",
"r	c #4B516E",
"s	c #162044",
"t	c #2F3858",
"u	c #CACDD5",
"v	c #B1B4C0",
"w	c #49506D",
"x	c #161F43",
"y	c #49506C",
"z	c #101631",
"A	c #04050B",
"..............",
"++++++++++++++",
"@@@#$%&&@@@@@@",
"***=--=;>=,***",
"''';--;)!~{'''",
"]]]^/^^]]]]]]]",
"((((_:<(((((((",
"[[[[}-|1|1[[[[",
"2222------3222",
"4444--545-6444",
"7777--879-0777",
"aaaabcaad-caaa",
"eeeeeeeeffgeee",
"hhhhiihj--hhhh",
"kkklm-nm-okkkk",
"pppq-----rpppp",
"ssstu--vwsssss",
"xxxxxyxxxxxxxx",
"zzzzzzzzzzzzzz",
"AAAAAAAAAAAAAA"};
